<svg width="99" height="50" viewBox="0 0 99 50" fill="none" xmlns="http://www.w3.org/2000/svg">
<path fill-rule="evenodd" clip-rule="evenodd" d="M45.6622 0L0 7.50399V42.496L45.6622 50V0Z" fill="#D80B22"/>
<path fill-rule="evenodd" clip-rule="evenodd" d="M28.7233 26.7163C27.9087 28.9449 25.5919 30.6413 23.0147 30.6413C19.8098 30.6413 16.9989 28.0069 16.9989 25C16.9989 21.993 19.8098 19.3587 23.0147 19.3587C25.5852 19.3587 27.9087 21.0617 28.7233 23.2836L37.5566 21.8334C36.929 19.1458 35.5135 16.6711 33.4103 14.6687C30.5794 11.9744 26.8872 10.4976 23.0147 10.4976C19.1422 10.4976 15.4566 11.9811 12.619 14.6687C9.70795 17.4361 8.10553 21.1016 8.10553 24.9933C8.10553 28.885 9.70795 32.5505 12.619 35.3179C15.4499 38.0122 19.1422 39.489 23.0147 39.489C26.8872 39.489 30.5727 38.0055 33.4103 35.3179C35.5135 33.3155 36.9357 30.8408 37.5566 28.1532L28.7233 26.7163Z" fill="white"/>
<path fill-rule="evenodd" clip-rule="evenodd" d="M60.371 25.8649C59.9638 26.9891 58.8087 27.8406 57.5201 27.8406C55.9177 27.8406 54.5155 26.5101 54.5155 25C54.5155 23.4833 55.9177 22.1594 57.5201 22.1594C58.8087 22.1594 59.9638 23.0176 60.371 24.1352L64.791 23.4034C64.4772 22.0463 63.7695 20.8023 62.7146 19.7978C61.2991 18.4407 59.4563 17.6956 57.5201 17.6956C55.5838 17.6956 53.741 18.4407 52.3256 19.7978C50.8701 21.1948 50.0688 23.0376 50.0688 25C50.0688 26.9625 50.8701 28.8119 52.3256 30.2023C53.741 31.5594 55.5838 32.3045 57.5201 32.3045C59.4563 32.3045 61.2991 31.5594 62.7146 30.2023C63.7695 29.1911 64.4772 27.9471 64.791 26.5966L60.371 25.8649Z" fill="#919292"/>
<path fill-rule="evenodd" clip-rule="evenodd" d="M82.5244 18.0482H65.679L66.1263 22.512H71.8816V31.9518H76.3217V22.512H82.077L82.5244 18.0482Z" fill="#919292"/>
<path fill-rule="evenodd" clip-rule="evenodd" d="M92.3259 28.579H88.9341V25.9912H92.3259C93.0403 25.9912 93.6145 26.57 93.6145 27.2818C93.6078 28.0003 93.0336 28.579 92.3259 28.579ZM88.9341 21.0883H91.5714C92.0855 21.0883 92.4995 21.5074 92.4995 22.0197C92.4995 22.5319 92.0855 22.951 91.5714 22.951H88.9341V21.0883ZM95.7978 23.2105C96.1049 22.6982 96.2852 22.0995 96.2852 21.4609C96.2852 19.5782 94.7629 18.0482 92.8867 18.0482H84.4807V31.9585H93.5077C96.0782 31.9585 98.1613 29.863 98.1613 27.2818C98.1547 25.5388 97.2066 24.0154 95.7978 23.2105Z" fill="#919292"/>
</svg>
