<svg width="186" height="50" viewBox="0 0 186 50" fill="none" xmlns="http://www.w3.org/2000/svg">
<path d="M31.1578 38.2222C30.9501 37.8068 30.7424 37.8068 30.3269 37.8068C28.6651 38.4299 26.7955 38.8454 24.9259 38.8454C17.24 38.8454 11.008 32.6135 11.008 24.9274C11.008 23.0579 11.4235 21.1884 12.0467 19.5265C12.2544 19.1111 12.0467 18.9033 11.6312 18.6956C11.4235 18.6956 11.008 18.6956 10.8003 19.1111C9.96939 20.9806 9.76166 22.8502 9.76166 24.9274C9.76166 33.2366 16.6168 40.0918 24.9259 40.0918C27.0032 40.0918 28.8728 39.6762 30.7424 38.8454C30.9501 38.8454 31.1578 38.4299 31.1578 38.2222Z" fill="#3973FF"/>
<path d="M35.7296 35.7287C37.1836 34.2745 38.2223 32.6127 39.0532 30.7431C39.2609 30.3277 39.0532 30.1199 38.6377 29.9122C38.2223 29.7045 38.0146 29.9122 37.8069 30.3277C37.1836 31.9895 36.145 33.4437 34.6909 34.8977C34.4831 35.1054 34.4831 35.521 34.6909 35.7287C34.8986 35.9364 34.8986 35.9364 35.1063 35.9364C35.3141 35.9364 35.5218 35.7287 35.7296 35.7287Z" fill="#3973FF"/>
<path d="M24.9267 43.4154C25.3421 43.4154 25.55 43.2077 25.55 42.7923C25.55 42.3768 25.3421 42.1691 24.9267 42.1691C15.3712 42.1691 7.68516 34.4831 7.68516 24.9276C7.68516 18.0725 11.8398 11.8406 18.0716 9.14007C18.4871 8.93234 18.6948 8.51688 18.4871 8.30915C18.4871 7.89369 18.0716 7.68596 17.6562 7.89369C10.8011 10.8019 6.43878 17.4492 6.43878 24.9276C6.43878 29.913 8.30835 34.4831 11.8398 38.0145C15.3712 41.546 19.9412 43.4154 24.9267 43.4154Z" fill="#3973FF"/>
<path d="M31.7793 41.9606H31.9872C35.3108 40.5065 38.2191 38.2215 40.0885 35.3133C42.1658 32.1973 43.2045 28.6658 43.2045 24.9268C43.2045 24.5112 42.9968 24.3035 42.5814 24.3035C42.1658 24.3035 41.9581 24.5112 41.9581 24.9268C41.9581 31.9896 37.8035 38.0137 31.3639 40.7142C30.9485 40.9219 30.9485 41.1296 30.9485 41.5452C31.1562 41.9606 31.3639 41.9606 31.7793 41.9606Z" fill="#3973FF"/>
<path d="M24.9276 4.56932C25.343 4.56932 25.5507 4.36159 25.5507 3.94613C25.5507 3.53067 25.343 3.32294 24.9276 3.32294C19.1111 3.32294 13.7101 5.60796 9.55556 9.76256C5.40096 13.9172 3.11594 19.3181 3.11594 25.1346C3.11594 30.9509 5.40096 36.352 9.55556 40.5066C9.76329 40.2988 9.76329 40.5066 9.97102 40.5066C10.1787 40.5066 10.3865 40.5066 10.3865 40.2988C10.5942 40.0911 10.5942 39.6757 10.3865 39.468C6.43961 35.5211 4.36231 30.5355 4.36231 25.1346C4.57004 13.7094 13.7101 4.56932 24.9276 4.56932Z" fill="#3973FF"/>
<path d="M44.6597 32.4054C44.2443 32.1977 44.0366 32.4054 43.8288 32.8208C40.7128 40.5069 33.2346 45.4923 24.9254 45.4923C22.225 45.4923 19.5245 44.8692 17.0318 44.0382C16.6162 43.8305 16.4085 44.0382 16.2008 44.4536C15.9931 44.8692 16.2008 45.0769 16.6162 45.2846C19.3168 46.3232 22.0172 46.9465 24.9254 46.9465C29.2877 46.9465 33.4424 45.7001 37.1815 43.2073C40.713 40.7146 43.4134 37.3909 45.0753 33.6517C45.0753 32.8208 44.8674 32.6131 44.6597 32.4054Z" fill="#3973FF"/>
<path d="M41.5459 41.5459C37.1836 45.9082 31.1595 48.4011 24.9276 48.4011C11.8406 48.6088 1.24638 38.0146 1.24638 24.9276C1.24638 11.8406 11.8406 1.24638 24.9276 1.24638C30.9518 1.24638 36.7681 3.53141 41.1305 7.686L39.6763 9.14011C37.8068 7.27054 35.5218 5.81643 33.0291 4.77778C32.6135 4.57005 32.4058 4.77778 32.1981 5.19324C31.9904 5.6087 32.1981 5.81643 32.6135 6.02416C34.8986 7.06281 36.9759 8.30919 38.8454 9.97103L37.3913 11.4251C34.0677 8.30919 29.4976 6.43962 24.7199 6.43962C24.3043 6.43962 24.0966 6.64735 24.0966 7.06281C24.0966 7.47827 24.3043 7.686 24.7199 7.686C29.0822 7.686 33.2368 9.34784 36.3527 12.2561L34.8986 13.7101C31.9904 11.2174 28.4589 9.7633 24.5122 9.7633C20.3576 9.7633 16.6184 11.4251 13.7101 14.1257C13.9178 14.3334 13.9178 14.7488 14.1257 15.1643C14.3334 15.372 14.3334 15.372 14.5411 15.372C14.7488 15.372 14.9565 15.372 14.9565 15.1643C17.657 12.4638 20.9807 11.0097 24.7199 11.0097C28.2512 11.0097 31.5749 12.2561 34.0677 14.5411L32.6135 15.9951C30.3285 13.9178 27.6281 12.8792 24.5122 12.8792C17.8647 12.8792 12.4638 18.2803 12.4638 24.9276C12.4638 31.5749 17.8647 36.9759 24.5122 36.9759C26.1739 36.9759 27.6281 36.5604 29.0822 35.9373C29.4976 35.7295 29.4976 35.3141 29.4976 35.1063C29.2899 34.6908 28.8745 34.6908 28.6668 34.6908C27.4203 35.3141 25.9662 35.5218 24.5122 35.5218C18.6957 35.5218 13.9178 30.7441 13.9178 24.9276C13.9178 19.1111 18.6957 14.3334 24.5122 14.3334C27.2126 14.3334 29.7054 15.372 31.5749 17.0338L24.0966 24.5122C23.8889 24.7199 23.8889 25.1353 24.0966 25.343C24.3043 25.5508 24.3043 25.5508 24.5122 25.5508C24.7199 25.5508 24.9276 25.5508 24.9276 25.343L43.2078 7.06281C43.4155 6.85508 43.4155 6.43962 43.2078 6.23189C43 6.02416 42.5846 6.02416 42.3769 6.23189L41.7536 6.85508C37.3913 2.49276 31.3672 0 24.9276 0C18.2803 0 12.0483 2.49276 7.27054 7.27054C2.49276 12.0483 0 18.2803 0 24.9276C0 31.5749 2.49276 37.8068 7.27054 42.5846C12.0483 47.3624 18.2803 49.8551 24.9276 49.8551C31.5749 49.8551 37.8068 47.3624 42.5846 42.5846C42.7923 42.3769 42.7923 41.9613 42.5846 41.7536C42.1692 41.3382 41.7536 41.3382 41.5459 41.5459Z" fill="#3973FF"/>
<path d="M115.496 8.3091V41.7535C115.496 42.3768 115.081 42.7922 114.457 42.7922H109.68C108.849 42.7922 108.641 42.3768 108.641 41.7535V18.0724L92.0227 41.9613C91.8149 42.1691 91.6071 42.3768 91.3994 42.5845C91.1917 42.7922 90.984 42.7922 90.5685 42.7922H85.7908C84.9598 42.7922 84.5443 42.3768 84.5443 41.7535V8.3091C84.5443 7.89364 84.7521 7.68591 84.9599 7.47818C85.1676 7.27045 85.3753 7.27045 85.7908 7.27045H90.7762C90.984 7.27045 91.1917 7.27045 91.3994 7.47818C91.6071 7.47818 91.8149 7.68591 91.8149 8.10137V30.7439L107.602 8.10137C107.81 7.89364 108.018 7.68591 108.226 7.47818C108.433 7.27045 108.849 7.27045 109.056 7.27045H114.665C115.081 7.27045 115.288 7.47818 115.496 7.68591C115.496 7.68591 115.496 7.89364 115.496 8.3091Z" fill="#3973FF"/>
<path d="M145.408 34.4828C146.031 34.0673 146.654 34.0673 146.862 34.4828L149.354 38.6374C149.562 38.8451 149.77 39.2605 149.562 39.4682C149.562 39.6761 149.354 39.8838 148.939 40.0915C147.485 41.1301 146.031 41.9611 144.369 42.5843C142.707 43.2074 140.838 43.4151 138.553 43.4151C136.059 43.4151 133.567 42.9997 131.49 41.9611C129.205 40.9224 127.335 39.6761 125.673 38.0142C124.011 36.3523 122.765 34.4828 121.726 32.1977C120.688 29.9127 120.272 27.6277 120.272 25.135C120.272 22.6422 120.688 20.1495 121.726 18.0722C122.765 15.7872 124.011 13.9176 125.673 12.2557C127.335 10.5939 129.412 9.34749 131.49 8.30884C133.567 7.2702 136.059 6.85474 138.553 6.85474C140.63 6.85474 142.707 7.06247 144.369 7.68566C146.031 8.30884 147.693 9.13976 148.939 10.1784C149.147 10.3861 149.354 10.5939 149.354 10.8016C149.354 11.0093 149.354 11.2171 149.354 11.4248L146.862 15.3716C146.654 15.7872 146.031 15.7872 145.615 15.3716C144.577 14.7485 143.33 14.1253 142.292 13.7099C141.253 13.2944 140.007 13.0866 138.761 13.0866C137.099 13.0866 135.645 13.2944 134.19 13.9176C132.736 14.5407 131.697 15.3716 130.659 16.4103C129.62 17.4489 128.789 18.6953 128.374 20.1495C127.751 21.6035 127.543 23.0577 127.543 24.7195C127.543 26.3813 127.751 27.8354 128.374 29.2896C128.997 30.7436 129.828 31.99 130.659 33.0286C131.697 34.0673 132.944 34.8982 134.19 35.5215C135.645 36.1446 137.099 36.5601 138.761 36.5601C140.007 36.5601 141.253 36.3523 142.5 35.9369C143.538 35.5215 144.577 35.1059 145.408 34.4828Z" fill="#3973FF"/>
<path d="M184.461 8.3091V41.7535C184.461 42.3768 184.046 42.7922 183.422 42.7922H178.645C177.813 42.7922 177.605 42.3768 177.605 41.7535V18.0724L160.988 41.9613C160.78 42.1691 160.572 42.3768 160.363 42.5845C160.157 42.7922 159.949 42.7922 159.534 42.7922H154.755C153.924 42.7922 153.509 42.3768 153.509 41.7535V8.3091C153.509 7.89364 153.716 7.68591 153.924 7.47818C154.132 7.27045 154.341 7.27045 154.755 7.27045H159.534C159.741 7.27045 159.949 7.27045 160.157 7.47818C160.363 7.47818 160.572 7.68591 160.572 8.10137V30.7439L176.359 8.10137C176.568 7.89364 176.774 7.68591 176.982 7.47818C177.191 7.27045 177.605 7.27045 177.813 7.27045H183.422C183.838 7.27045 184.046 7.47818 184.253 7.68591C184.461 7.68591 184.461 7.89364 184.461 8.3091Z" fill="#3973FF"/>
<path d="M73.7441 31.5748C73.7441 30.9515 73.5363 30.1206 73.3286 29.4975C73.1209 28.8742 72.7054 28.2511 72.29 27.8356C71.8745 27.4202 71.2514 27.0046 70.6281 26.5892C70.005 26.3815 69.3818 26.1738 68.5508 26.1738H60.8649V36.9757H68.5508C69.3818 36.9757 70.005 36.768 70.6281 36.5603C71.2514 36.3525 71.8745 35.9371 72.29 35.3138C72.7054 34.8984 73.1209 34.2752 73.3286 33.6521C73.5363 33.0288 73.7441 32.1979 73.7441 31.5748ZM54.8407 7.06262H76.4446C77.0677 7.06262 77.2755 7.47808 77.2755 8.10127V12.2559C77.2755 12.8791 76.86 13.2945 76.2369 13.2945H60.4493V20.3573H69.3818C71.0436 20.3573 72.4977 20.565 73.7441 21.1883C74.9904 21.8114 76.2369 22.6423 77.2755 23.681C78.3142 24.7196 78.9373 25.966 79.5605 27.2125C80.1836 28.4588 80.3915 29.9129 80.3915 31.3671C80.3915 32.8211 80.1836 34.2752 79.5605 35.5216C78.9373 36.768 78.3142 38.0144 77.2755 39.053C76.2369 40.0917 75.1982 40.9226 73.7441 41.5457C72.29 42.1689 70.8358 42.3766 69.3818 42.3766H54.8407C54.2174 42.3766 54.0097 42.1689 54.0097 41.5457V8.10127C54.0097 7.47808 54.4253 7.06262 54.8407 7.06262Z" fill="#3973FF"/>
</svg>
